<?xml version="1.0" standalone="no"?>
<!DOCTYPE svg PUBLIC "-//W3C//DTD SVG 20010904//EN"
 "http://www.w3.org/TR/2001/REC-SVG-20010904/DTD/svg10.dtd">
<svg version="1.0" xmlns="http://www.w3.org/2000/svg"
 width="317.000000pt" height="317.000000pt" viewBox="0 0 317.000000 317.000000"
 preserveAspectRatio="xMidYMid meet">
<metadata>
Created by potrace 1.14, written by Peter Selinger 2001-2017
</metadata>
<g transform="translate(0.000000,317.000000) scale(0.100000,-0.100000)"
fill="#000000" stroke="none">
<path d="M637 3138 c-8 -18 -25 -66 -36 -105 l-22 -73 -52 -1 c-29 -1 -55 -1
-59 0 -3 0 -42 -6 -86 -14 -52 -9 -104 -27 -148 -50 -38 -20 -58 -33 -44 -30
132 32 288 43 349 26 22 -6 24 -11 27 -104 2 -53 5 -101 8 -106 6 -9 -18 -46
-31 -46 -4 -1 -46 -20 -93 -43 -83 -42 -105 -50 -142 -51 -10 -1 -18 -7 -18
-15 0 -17 51 -56 74 -56 9 0 16 -5 16 -10 0 -6 3 -9 8 -8 4 1 27 -5 52 -12 61
-18 64 -19 154 -25 123 -8 105 -18 -24 -12 -72 3 -116 9 -118 16 -2 6 -8 9
-13 6 -11 -8 -94 29 -133 59 -45 33 -64 38 -136 37 -72 -2 -113 9 -148 41
l-22 21 0 -119 0 -119 87 -83 c69 -66 84 -85 73 -92 -8 -6 -19 -10 -23 -10
-11 0 -49 -37 -96 -95 -37 -45 -41 -55 -41 -107 0 -32 2 -58 5 -58 17 0 53 25
48 33 -3 6 -1 7 5 3 6 -4 29 2 51 14 22 11 44 20 48 20 4 0 8 -96 9 -213 0
-201 2 -216 25 -281 32 -87 48 -96 41 -24 -5 48 -4 52 11 39 10 -7 17 -20 17
-27 0 -19 69 -94 86 -94 8 0 13 -3 12 -7 -3 -10 59 -100 72 -105 5 -1 -2 -25
-16 -53 -31 -60 -29 -127 6 -195 75 -147 312 -247 500 -210 39 7 52 5 100 -20
30 -15 75 -38 100 -50 66 -32 118 -83 125 -122 7 -35 -14 -127 -38 -175 -30
-57 -36 -58 -137 -8 -93 45 -125 54 -118 34 4 -13 150 -92 243 -132 39 -16
104 -45 145 -64 303 -141 408 -176 506 -171 43 2 60 7 62 18 2 12 -12 15 -75
16 -90 1 -174 28 -381 123 -70 32 -153 70 -184 84 l-57 26 34 57 c19 31 37 76
41 99 6 46 -2 180 -13 199 -4 6 1 5 10 -3 9 -7 17 -9 17 -3 0 11 -2 12 -120
54 -47 17 -111 44 -144 60 -56 28 -61 29 -121 19 -89 -16 -120 -14 -208 14
-100 31 -154 63 -209 124 -71 78 -83 157 -36 224 11 15 26 27 35 27 8 0 31 14
50 30 53 47 85 41 162 -26 36 -31 72 -70 80 -87 27 -52 36 -29 34 87 l-3 110
38 -36 c36 -35 100 -73 108 -65 2 2 -9 30 -26 63 -32 63 -45 124 -53 246 -4
61 -3 76 8 72 14 -6 96 112 156 223 34 64 49 77 49 46 0 -18 -16 -92 -26 -127
-4 -12 -2 -16 5 -11 20 11 119 226 137 295 10 37 26 72 38 82 20 16 20 16 1
15 -24 -2 -24 2 -1 133 16 91 21 108 30 99 12 -12 46 -172 56 -261 26 -233 56
-332 175 -575 47 -94 85 -174 85 -177 0 -3 -24 -20 -54 -37 -52 -31 -63 -49
-30 -49 28 0 120 51 160 88 22 21 53 55 70 76 l31 39 54 -25 c61 -29 172 -64
236 -74 39 -6 42 -5 49 20 6 24 9 25 48 18 22 -4 60 -7 84 -7 43 1 44 0 38
-30 -4 -16 -9 -48 -13 -70 -6 -39 -6 -40 14 -22 11 9 28 17 39 17 18 0 19 -8
19 -128 0 -133 -8 -169 -30 -138 -21 29 -125 137 -125 130 0 -4 29 -38 65 -75
36 -38 65 -75 65 -82 0 -39 -153 -171 -246 -212 -66 -29 -237 -85 -261 -85
-10 0 -67 -12 -127 -27 -102 -25 -109 -29 -122 -58 -14 -35 -28 -255 -15 -255
5 0 42 -34 82 -76 77 -78 177 -156 209 -161 40 -6 27 25 -23 58 -29 19 -87 67
-129 108 -59 56 -81 84 -89 114 -13 48 -9 192 6 206 6 5 56 14 111 19 62 6
117 18 140 30 22 10 83 34 136 52 121 41 187 78 278 155 52 45 78 76 102 123
30 61 31 65 25 157 -4 56 -3 97 3 100 5 3 24 -17 41 -45 33 -54 39 -60 34 -32
-13 61 -18 74 -38 92 -13 13 -16 19 -6 15 9 -3 16 0 17 7 0 7 7 30 14 50 16
46 38 58 38 22 0 -40 21 -24 57 41 25 47 37 59 60 63 51 6 174 62 218 98 48
39 71 75 32 50 -41 -27 -91 -29 -141 -7 -39 17 -46 24 -46 48 0 21 -3 25 -10
13 -20 -33 -34 9 -38 113 -2 56 -10 122 -17 146 -8 24 -12 47 -10 52 8 12 65
-8 90 -31 12 -11 28 -20 36 -20 8 1 0 13 -19 29 l-33 28 47 12 c57 15 120 50
158 90 49 51 24 51 -51 1 -51 -34 -87 -51 -125 -57 -52 -8 -128 3 -128 19 0
17 234 122 353 158 34 10 80 20 102 22 32 2 41 7 43 24 4 26 -91 116 -155 147
-24 12 -43 24 -43 27 0 3 20 16 45 28 49 24 58 42 22 42 -13 0 -29 6 -35 13
-9 8 -57 13 -155 14 -78 1 -144 3 -146 3 -2 0 8 9 22 20 34 27 71 105 99 210
19 72 22 107 20 234 -2 159 -15 211 -25 102 -7 -75 -24 -117 -38 -95 -5 8 -9
26 -9 41 0 63 -26 78 -36 21 -9 -51 -19 -69 -77 -136 -56 -65 -113 -99 -169
-101 -60 -1 -65 15 -19 63 23 24 41 49 41 57 0 8 6 17 14 20 30 11 95 139 96
187 0 18 -19 4 -30 -23 -13 -31 -24 -37 -35 -20 -4 6 -24 19 -45 30 -38 19
-60 20 -654 20 -363 0 -617 -4 -620 -9 -4 -5 -37 -26 -74 -47 -37 -20 -98 -67
-137 -104 l-70 -67 -124 11 -123 10 7 50 c3 28 14 74 24 103 20 58 12 72 -12
21z m851 13 c13 -8 3 -16 -33 -27 -19 -6 -170 -66 -187 -75 -26 -13 -27 10 -3
55 17 33 28 42 56 46 60 10 154 11 167 1z m981 -67 c12 -11 -64 -85 -134 -132
-66 -44 -86 -52 -112 -48 -24 3 -31 1 -27 -9 3 -7 0 -16 -6 -20 -12 -8 -70 13
-70 25 0 4 -23 31 -50 60 -28 28 -49 57 -47 63 4 14 128 56 197 66 50 8 239 4
249 -5z m-1383 -36 c-9 -13 -27 -39 -40 -58 -35 -52 -49 -61 -85 -54 l-33 7
44 40 c79 72 148 112 114 65z m-384 -184 c8 -7 -41 -94 -53 -94 -5 0 -9 23 -9
50 0 48 1 50 28 50 16 0 31 -3 34 -6z m879 -61 c13 -16 12 -17 -3 -4 -10 7
-18 15 -18 17 0 8 8 3 21 -13z m34 -33 c3 -5 2 -10 -4 -10 -5 0 -13 5 -16 10
-3 6 -2 10 4 10 5 0 13 -4 16 -10z m12 -42 c-3 -8 -6 -5 -6 6 -1 11 2 17 5 13
3 -3 4 -12 1 -19z m30 -60 c-3 -8 -6 -5 -6 6 -1 11 2 17 5 13 3 -3 4 -12 1
-19z m51 -164 c-3 -14 -5 -12 -10 9 -3 19 -2 25 4 19 6 -6 8 -18 6 -28z m-1
-71 c-3 -10 -5 -2 -5 17 0 19 2 27 5 18 2 -10 2 -26 0 -35z m-892 8 c-15 -13
-62 -26 -50 -13 6 5 19 12 30 15 11 3 22 5 25 6 2 0 0 -3 -5 -8z m918 -154
c19 -16 20 -17 2 -9 -11 5 -24 8 -30 6 -5 -2 -15 7 -21 20 -9 20 -9 23 2 19
10 -4 14 5 16 33 1 38 2 38 5 -6 3 -31 11 -51 26 -63z m67 -43 c0 -2 -9 0 -20
6 -11 6 -20 13 -20 16 0 2 9 0 20 -6 11 -6 20 -13 20 -16z m-402 -186 c10 -24
26 -86 36 -138 10 -52 22 -99 26 -105 4 -5 10 -28 13 -49 6 -36 5 -38 -8 -19
-29 42 -57 134 -100 331 -9 38 13 24 33 -20z m737 -113 c30 -109 89 -246 114
-265 13 -10 30 -103 31 -164 0 -42 -2 -47 -17 -40 -10 4 -62 23 -116 42 -103
37 -112 45 -119 109 -3 23 1 28 27 34 30 7 30 7 3 8 -59 2 -60 5 -22 131 15
51 33 152 39 217 4 41 11 71 15 66 4 -4 24 -66 45 -138z m-1258 -287 c-3 -8
-6 -5 -6 6 -1 11 2 17 5 13 3 -3 4 -12 1 -19z m793 -152 c-6 -29 -17 -62 -25
-72 -12 -17 -13 -14 -9 26 6 55 24 142 33 155 11 19 12 -55 1 -109z"/>
<path d="M2120 2920 c18 -12 30 -13 30 -2 0 4 -10 9 -22 9 -18 2 -20 0 -8 -7z"/>
<path d="M2160 2909 c0 -5 5 -7 10 -4 6 3 10 8 10 11 0 2 -4 4 -10 4 -5 0 -10
-5 -10 -11z"/>
<path d="M2105 1650 c3 -5 11 -10 16 -10 6 0 7 5 4 10 -3 6 -11 10 -16 10 -6
0 -7 -4 -4 -10z"/>
<path d="M2148 1628 c5 -5 16 -8 23 -6 8 3 3 7 -10 11 -17 4 -21 3 -13 -5z"/>
<path d="M2190 1612 c0 -12 19 -26 26 -19 2 2 -2 10 -11 17 -9 8 -15 8 -15 2z"/>
<path d="M2780 1883 c57 -63 57 -63 36 -28 -10 17 -25 36 -34 43 -9 6 -12 12
-6 12 11 0 -18 20 -30 20 -5 0 11 -21 34 -47z"/>
<path d="M2640 1858 c0 -9 5 -20 10 -23 13 -8 13 5 0 25 -8 13 -10 13 -10 -2z"/>
<path d="M2654 1803 c4 -9 10 -37 13 -61 3 -26 9 -38 14 -31 4 7 1 31 -6 55
-7 24 -10 45 -7 48 3 4 0 6 -7 6 -8 0 -11 -6 -7 -17z"/>
<path d="M1185 1680 c-16 -7 -17 -9 -3 -9 9 -1 20 4 23 9 7 11 7 11 -20 0z"/>
<path d="M1100 1660 c0 -5 5 -10 11 -10 5 0 7 5 4 10 -3 6 -8 10 -11 10 -2 0
-4 -4 -4 -10z"/>
<path d="M1152 1565 c-51 -13 -101 -27 -110 -31 -9 -4 -23 -8 -31 -10 -8 -1
-18 -9 -22 -16 -5 -7 -9 -8 -9 -3 0 6 -4 4 -9 -4 -24 -37 5 -43 131 -26 20 3
38 1 40 -4 2 -6 35 -4 83 4 44 8 96 15 116 15 19 0 41 6 48 13 11 10 12 9 6
-2 -4 -7 6 -3 24 10 17 12 31 26 31 29 0 4 -22 16 -48 28 -62 28 -128 27 -250
-3z"/>
<path d="M542 1174 c-30 -21 -43 -47 -32 -65 8 -11 12 -10 25 8 27 39 49 45
95 27 22 -9 40 -23 40 -31 0 -8 -4 -12 -9 -9 -13 8 -39 -16 -43 -40 -4 -30 20
-71 51 -83 41 -17 118 -29 132 -20 16 9 -18 25 -72 34 -41 6 -89 39 -89 60 0
17 26 26 56 19 38 -10 42 21 8 58 -51 54 -119 72 -162 42z"/>
<path d="M1021 1091 c-8 -5 -20 -7 -28 -4 -7 3 -13 -1 -13 -9 0 -7 -9 -19 -21
-26 -12 -7 -18 -16 -15 -19 3 -4 14 1 23 10 10 8 23 17 28 18 10 3 52 39 44
39 -2 0 -10 -4 -18 -9z"/>
<path d="M1682 1034 c-13 -10 -13 -11 2 -17 20 -8 69 10 61 22 -7 13 -43 10
-63 -5z"/>
<path d="M2870 1015 c-7 -9 -8 -15 -2 -15 5 0 12 7 16 15 3 8 4 15 2 15 -2 0
-9 -7 -16 -15z"/>
<path d="M909 1003 c-13 -16 -12 -17 4 -4 9 7 17 15 17 17 0 8 -8 3 -21 -13z"/>
<path d="M2733 995 c0 -8 8 -16 18 -18 11 -3 16 0 12 8 -7 19 -30 26 -30 10z"/>
<path d="M2493 684 c-29 -77 22 -142 71 -89 25 26 33 84 14 97 -23 14 -78 9
-85 -8z m77 -27 c0 -27 -17 -52 -42 -60 -21 -7 -33 23 -24 59 5 19 13 24 36
24 25 0 30 -4 30 -23z"/>
<path d="M866 431 c-33 -83 -74 -140 -205 -279 -55 -59 -108 -117 -116 -129
-15 -22 -15 -23 7 -23 16 0 36 14 58 42 19 23 76 86 125 139 89 95 157 205
171 277 12 59 -15 41 -40 -27z"/>
<path d="M1878 227 c6 -7 43 -30 81 -51 38 -21 108 -69 155 -107 78 -62 126
-85 126 -60 0 24 -168 150 -267 200 -66 33 -115 42 -95 18z"/>
</g>
</svg>
